<svg aria-hidden="true" style="width:0;height:0;position:absolute;overflow:hidden" xmlns="http://www.w3.org/2000/svg"><defs><symbol id="arrow-left-icon" viewBox="0 0 32 32"><path stroke-linejoin="round" stroke-linecap="round" stroke-width="2.67" d="M25.33 16H6.67M16 25.33 6.67 16 16 6.67"/></symbol><symbol id="arrow-right-icon" viewBox="0 0 32 32"><path stroke-linejoin="round" stroke-linecap="round" stroke-width="2.67" d="M6.67 16h18.66M16 25.33 25.33 16 16 6.67"/></symbol><symbol id="close-icon" viewBox="0 0 32 32"><path stroke-width="2.13" d="m8.53 8.53 14.94 14.94m-14.94 0L23.47 8.53"/></symbol><symbol id="film-icon" viewBox="0 0 32 32"><path fill="none" stroke="#fff" style="stroke:var(--color1,#fff)" stroke-linejoin="round" stroke-linecap="round" stroke-width="2.67" d="M26.43 2.67H5.57a2.9 2.9 0 0 0-2.9 2.9v20.86c0 1.6 1.3 2.9 2.9 2.9h20.86c1.6 0 2.9-1.3 2.9-2.9V5.57c0-1.6-1.3-2.9-2.9-2.9zm-17.1 0v26.66M22.67 2.67v26.66M2.67 16h26.66M2.67 9.33h6.66M2.67 22.67h6.66m13.34 0h6.66M22.67 9.33h6.66"/></symbol><symbol id="heart-icon" viewBox="0 0 32 32"><path d="m16 30.14-2.24-2.21C5.44 20.63 0 15.73 0 9.7A8.63 8.63 0 0 1 8.8.99 9.65 9.65 0 0 1 16 4.32 9.66 9.66 0 0 1 23.2 1C28.16 1 32 4.8 32 9.71c0 6.02-5.44 10.93-13.76 18.22L16 30.14z"/></symbol><symbol id="search-icon" viewBox="0 0 32 32"><path fill="none" stroke="#fff" style="stroke:var(--color1,#fff)" stroke-linejoin="round" stroke-linecap="round" stroke-width="2.67" d="M14.67 25.33a10.67 10.67 0 1 0 0-21.33 10.67 10.67 0 0 0 0 21.33zM28 28l-5.8-5.8"/></symbol><symbol id="icon-close-black-18dp-2-1-1" viewBox="0 0 32 32"><path d="m26.684 7.308-1.971-1.971L16.9 13.15 9.087 5.337 7.116 7.308l7.813 7.813-7.813 7.813 1.971 1.971 7.813-7.813 7.813 7.813 1.971-1.971-7.813-7.813 7.813-7.813z"/></symbol><symbol id="icon-fond" viewBox="0 0 117 19" fill="none"><path d="M23.968 1.031h2.097l-.152.452h-1.395v.911h.272c.383 0 .687.048.923.168.32.163.493.452.493.865 0 .62-.372 1.06-1.368 1.06h-.871V1.03Zm.886 3c.54 0 .792-.19.792-.588 0-.236-.089-.403-.252-.493-.141-.079-.34-.1-.592-.1h-.284v1.18h.336ZM26.73 4.498v-.51c.052.011.088.011.11.011.146 0 .283-.073.387-.241.315-.499.525-1.778.608-2.727h1.742v3.456h-.556V1.482h-.724c-.079.897-.31 2.108-.656 2.638-.189.283-.43.393-.744.393-.031 0-.115 0-.167-.015ZM31.595 1.015h.425l1.369 3.472h-.593l-.34-.886h-1.28l-.33.886h-.577l1.326-3.472Zm.693 2.135-.284-.786c-.094-.283-.146-.44-.183-.556h-.01a5.8 5.8 0 0 1-.19.556l-.283.786h.95ZM34.086 1.031h1.882l-.157.466h-1.174v2.99h-.551V1.03ZM36.46 2.772c0-1.049.718-1.772 1.725-1.772 1.012 0 1.72.734 1.72 1.772 0 1.07-.734 1.767-1.72 1.767-1.001.001-1.725-.703-1.725-1.767Zm2.863 0c0-.782-.43-1.306-1.139-1.306-.68 0-1.138.499-1.138 1.306s.456 1.3 1.138 1.3c.683 0 1.139-.493 1.139-1.3ZM40.496 4.015h.21c.477-.592.813-1.652 1.017-2.984h1.632v2.984h.435v1.442h-.535v-.97h-2.224v.97h-.534V4.015Zm2.308-2.532h-.645c-.163 1.12-.493 1.998-.834 2.522v.01h1.479V1.483ZM44.574 1.031h.551v3.456h-.55V1.031ZM46.19 1.031h.55v1.962c0 .215-.006.409-.01.592h.01c.11-.167.247-.356.425-.587l1.479-1.967h.54v3.456h-.551V2.426c0-.226 0-.404.01-.556h-.01c-.115.163-.246.352-.42.572l-1.537 2.045h-.488V1.031h.001ZM46.802.03h.462c0 .235.115.43.435.43.314 0 .43-.195.43-.43h.467c.01.487-.315.838-.897.838-.593 0-.913-.35-.897-.838ZM50.252 1.031h.55V2.49h1.731V1.031h.551v3.456h-.55V2.956h-1.731v1.531h-.551V1.031ZM54.146 1.031h.551v1.962c0 .215-.006.409-.01.592h.01c.11-.167.247-.356.425-.588L56.6 1.031h.54v3.456h-.551V2.425c0-.225 0-.403.01-.555h-.01c-.115.163-.246.352-.42.572l-1.536 2.045h-.489V1.031h.001ZM58.21 1.031h.55v1.962c0 .215-.005.409-.01.592h.01c.11-.167.247-.356.425-.587l1.48-1.967h.54v3.456h-.551V2.426c0-.226 0-.404.01-.556h-.01c-.116.163-.247.352-.42.572l-1.537 2.045h-.488V1.031ZM58.823.03h.462c0 .235.116.43.435.43.315 0 .43-.195.43-.43h.468c.01.487-.315.838-.898.838-.593 0-.912-.35-.897-.838ZM64.91 4.109c-.913-.068-1.453-.513-1.453-1.353 0-.828.556-1.301 1.453-1.369V.952h.55v.435c.898.074 1.443.551 1.443 1.369 0 .844-.545 1.285-1.442 1.353v.472h-.551v-.472Zm0-2.25c-.566.047-.892.336-.892.897 0 .551.3.835.892.876V1.86Zm1.432.897c0-.534-.294-.844-.881-.891v1.767c.566-.042.88-.299.88-.876ZM67.661 2.772c0-1.049.718-1.772 1.725-1.772 1.012 0 1.72.734 1.72 1.772 0 1.07-.734 1.767-1.72 1.767-1.001.001-1.725-.703-1.725-1.767Zm2.864 0c0-.782-.43-1.306-1.139-1.306-.681 0-1.138.499-1.138 1.306s.456 1.3 1.138 1.3c.682 0 1.139-.493 1.139-1.3ZM72.022 1.031h.551V2.49h1.731V1.031h.55v3.456h-.55V2.956h-1.73v1.531h-.552V1.031ZM75.593 4.015h.21c.477-.592.812-1.652 1.017-2.984h1.631v2.984h.435v1.442h-.534v-.97h-2.224v.97h-.534V4.015h-.001ZM77.9 1.483h-.645c-.163 1.12-.493 1.998-.834 2.522v.01H77.9V1.483ZM29.865 17.717a4.88 4.88 0 0 1-2.326.578c-2.434 0-3.856-1.676-3.856-4.002 0-2.302 1.614-4.134 4.025-4.134.856 0 1.579.193 2 .422v1a4.028 4.028 0 0 0-1.976-.506c-1.807 0-2.916 1.435-2.916 3.17 0 1.856 1.097 3.134 2.844 3.134.748 0 1.35-.216 1.905-.518l.3.856ZM31.7 10.232h4.013l-.326.917h-2.615v2.518h2.591v.916h-2.591v2.675h2.989v.917h-4.062v-7.943ZM37.957 10.232h1.627c.772 0 1.313.12 1.748.362.747.41 1.193 1.157 1.193 2.182 0 .916-.398 1.795-1.398 2.242-.41.18-.928.289-1.639.289h-.457v2.868h-1.073v-7.943h-.001Zm1.603 4.195c.482 0 .832-.085 1.085-.217.518-.266.76-.76.76-1.434 0-.627-.242-1.133-.712-1.41-.265-.157-.614-.254-1.12-.254h-.543v3.315h.53ZM44.553 10.232h4.133l-.325.917h-2.748v7.026h-1.06v-7.943ZM50.231 10.232h1.073v7.943h-1.073v-7.943ZM54.416 15.643c.313-.59.518-.916.843-1.096v-.024c-.928-.301-1.399-1.036-1.399-1.965 0-1.542 1.121-2.326 2.616-2.326h2.17v7.943h-1.073v-3.29h-1.205c-.242 0-.53.253-.88.964l-1.132 2.326h-1.242l1.302-2.532Zm2.169-1.639h.988v-2.892h-.952c-.964 0-1.651.494-1.651 1.494 0 .976.699 1.398 1.615 1.398ZM64.265 10.232h5.978v7.943H69.17v-7.026h-3.845v7.026h-1.06v-7.943ZM72.753 10.232h1.627c.772 0 1.313.12 1.748.362.747.41 1.193 1.157 1.193 2.182 0 .916-.398 1.795-1.398 2.242-.41.18-.928.289-1.639.289h-.458v2.868h-1.072v-7.943h-.001Zm1.603 4.195c.482 0 .832-.085 1.085-.217.518-.266.76-.76.76-1.434 0-.627-.242-1.133-.712-1.41-.266-.157-.615-.254-1.121-.254h-.542v3.315h.53ZM79.349 10.232h1.06v4.797c0 .554 0 .952-.024 1.374h.024c.266-.386.603-.88 1.073-1.483l3.531-4.688h1.036v7.943h-1.072v-4.978c0-.579.012-.952.024-1.326h-.024c-.265.386-.603.856-1.037 1.434l-3.676 4.87h-.915v-7.943ZM90.054 11.149h-2.29v-.917h5.882l-.326.917h-2.193v7.026h-1.073v-7.026ZM95.758 18.21v-.928c.145.037.278.05.422.05.724 0 1.037-.483 1.495-1.424l-2.809-5.676h1.194l2.157 4.544h.025l1.964-4.544h1.169l-2.772 6.074c-.638 1.423-1.35 1.953-2.325 1.953-.134 0-.362-.012-.52-.048ZM101.426 18.21v-1c.108.024.192.024.241.024.35 0 .687-.168.94-.59.736-1.253 1.241-4.483 1.399-6.412h3.784v7.943h-1.072v-7.063h-1.796c-.145 1.808-.687 4.881-1.495 6.182-.409.675-.964.953-1.663.953-.061 0-.23-.012-.338-.036ZM110.299 10.232h1.061v4.797c0 .554 0 .952-.024 1.374h.024c.265-.386.602-.88 1.072-1.483l3.532-4.688H117v7.943h-1.073v-4.978c0-.579.012-.952.024-1.326h-.024c-.265.386-.602.856-1.036 1.434l-3.676 4.87h-.915v-7.943h-.001Z" fill="#000"/><path d="M8.133 0v15.328h2.837V2.836h4.358v5.297h2.837V0H8.133Z" fill="#001E61"/><path d="M15.328 15.328v2.836h2.837v-7.196h-2.837v4.36Z" fill="#001E61"/><path d="M15.327 8.133H10.97v2.836h7.195V8.133h-2.837ZM2.836 15.328v-4.36h5.297V8.134H0v10.03h15.328v-2.835H2.836Z" fill="#D48232"/></symbol></defs></svg>